<svg xmlns="http://www.w3.org/2000/svg" data-name="Layer 1" viewBox="0 0 100 125" x="0px" y="0px"><title>mail50</title><path d="M50,0a50,50,0,1,0,50,50A50,50,0,0,0,50,0ZM25.11,34.1a5.49,5.49,0,0,1,1.17-2.41A3.45,3.45,0,0,1,29,30.39c2.94,0,5.88,0,8.82,0H70.35a4.48,4.48,0,0,1,4.57,3.7l0,0.12a6.75,6.75,0,0,1-1.17,4.68,14.39,14.39,0,0,1-4,4C65.12,46,60.5,49.23,55.91,52.46A22.83,22.83,0,0,1,51.81,55a4.14,4.14,0,0,1-3.69-.06,36.86,36.86,0,0,1-3.68-2.23q-5.9-4-11.74-8.15a29,29,0,0,1-5-3.89,9.81,9.81,0,0,1-2.44-3.91A5.69,5.69,0,0,1,25.11,34.1ZM70.41,69.66q-17.47,0-34.94,0H29.54A4.57,4.57,0,0,1,25,65.06c0-5,0-10.09,0-15.14,0-2.27,0-4.54,0-7,2.05,2.27,4.59,3.61,6.91,5.24,3.95,2.8,7.92,5.56,11.88,8.35a15.15,15.15,0,0,0,4,2,7.2,7.2,0,0,0,4.46-.06,15.51,15.51,0,0,0,4.3-2.23c5.14-3.6,10.32-7.16,15.46-10.77,1-.71,1.92-1.54,2.92-2.35,0,1,0,2.1,0,3.16,0,6.27-.05,12.54,0,18.8A4.67,4.67,0,0,1,70.41,69.66Z"/><text x="0" y="115" fill="#000000" font-size="5px" font-weight="bold" font-family="'Helvetica Neue', Helvetica, Arial-Unicode, Arial, Sans-serif">Created by i cons</text><text x="0" y="120" fill="#000000" font-size="5px" font-weight="bold" font-family="'Helvetica Neue', Helvetica, Arial-Unicode, Arial, Sans-serif">from the Noun Project</text></svg>